<svg viewBox="0 0 24.5 28" xmlns="http://www.w3.org/2000/svg" xmlns:xlink="http://www.w3.org/1999/xlink" width="24.500000" height="28.000000" fill="none" customFrame="#000000">
	<path id="Vector" d="M17.1172 19.25C15.5312 19.25 14.8203 20.125 12.25 20.125C9.625 20.125 8.91406 19.25 7.32812 19.25C3.28125 19.25 0 22.5859 0 26.6328C0 27.3984 0.601562 28 1.36719 28L23.0781 28C23.8438 28 24.5 27.3984 24.5 26.6328C24.5 22.5859 21.1641 19.25 17.1172 19.25ZM1.75 26.25C1.91406 23.3516 4.375 21.0547 7.32812 21C8.42188 21 9.46094 21.875 12.25 21.875C15.0391 21.875 16.0234 21 17.1172 21C20.0703 21.0547 22.5312 23.3516 22.6953 26.25L1.75 26.25ZM4.8125 8.75L5.46875 8.75C5.30469 9.35156 5.25 9.89844 5.25 10.5C5.25 14.3828 8.36719 17.5 12.25 17.5C16.0781 17.5 19.25 14.3828 19.25 10.5C19.1953 9.89844 19.1406 9.35156 18.9766 8.75L19.6875 8.75C19.9062 8.75 20.125 8.58594 20.125 8.3125L20.125 7.4375C20.125 7.21875 19.9062 7 19.6875 7L19.25 7C19.25 4.21094 17.3359 1.85938 14.7109 1.14844C14.4922 0.492188 13.8359 0.0546875 13.125 0L11.375 0C10.6094 0.0546875 9.95312 0.492188 9.73438 1.14844C7.16406 1.85938 5.25 4.21094 5.25 7L4.8125 7C4.53906 7 4.375 7.21875 4.375 7.4375L4.375 8.3125C4.375 8.58594 4.53906 8.75 4.8125 8.75ZM14.875 3.00781C16.4062 3.71875 17.4453 5.25 17.5 7L14.875 7L14.875 3.00781ZM11.375 1.75L13.125 1.75L13.125 7L11.375 7L11.375 1.75ZM7 7C7 5.25 8.03906 3.71875 9.625 3.00781L9.625 7L7 7ZM7.32812 8.75L17.1719 8.75C17.3359 9.29688 17.4453 9.89844 17.5 10.5C17.5 13.3984 15.0938 15.75 12.25 15.75C9.35156 15.75 7 13.3984 7 10.5C7 9.89844 7.10938 9.29688 7.32812 8.75Z" fill="rgb(91.8,141.525,229.5)" fill-rule="nonzero" />
</svg>
