<svg viewBox="0 0 21 28" xmlns="http://www.w3.org/2000/svg" xmlns:xlink="http://www.w3.org/1999/xlink" width="21.000000" height="28.000000" fill="none" customFrame="#000000">
	<path id="Vector" d="M20.125 1.75L20.3438 1.75C20.6719 1.75 21 1.47656 21 1.09375L21 0.65625C21 0.328125 20.6719 0 20.3438 0L0.65625 0C0.273438 0 0 0.328125 0 0.65625L0 1.09375C0 1.47656 0.273438 1.75 0.65625 1.75L0.875 1.75C0.875 6.78125 3.28125 12.3594 7.92969 14C3.22656 15.6953 0.875 21.2734 0.875 26.25L0.65625 26.25C0.273438 26.25 0 26.5781 0 26.9062L0 27.3438C0 27.7266 0.273438 28 0.65625 28L20.3438 28C20.6719 28 21 27.7266 21 27.3438L21 26.9062C21 26.5781 20.6719 26.25 20.3438 26.25L20.125 26.25C20.125 21.2734 17.6641 15.6953 13.0156 14C17.7188 12.3594 20.125 6.78125 20.125 1.75ZM2.625 1.75L18.375 1.75C18.375 7.82031 14.8203 12.6875 10.5 12.6875C6.125 12.6875 2.625 7.82031 2.625 1.75ZM18.375 26.25L2.625 26.25C2.625 20.2344 6.125 15.3125 10.5 15.3125C14.8203 15.3125 18.375 20.2344 18.375 26.25ZM14.7109 8.03906C15.0391 7.65625 14.7109 7 14.1641 7L6.78125 7C6.23438 7 5.90625 7.65625 6.23438 8.03906C6.34375 8.20312 6.45312 8.36719 6.61719 8.53125C6.72656 8.69531 6.89062 8.75 7.10938 8.75L13.8359 8.75C14.0547 8.75 14.2188 8.69531 14.3281 8.53125C14.4922 8.36719 14.6016 8.20312 14.7109 8.03906ZM5.35938 22.75C5.03125 22.75 4.8125 22.9688 4.70312 23.2422C4.70312 23.4062 4.64844 23.5703 4.59375 23.7344C4.53906 24.1172 4.8125 24.5 5.25 24.5L15.6953 24.5C16.1328 24.5 16.4062 24.1172 16.3516 23.7344C16.2969 23.5703 16.2422 23.4062 16.2422 23.2422C16.1328 22.9688 15.9141 22.75 15.5859 22.75L5.35938 22.75Z" fill="rgb(91.8,141.525,229.5)" fill-rule="nonzero" />
</svg>
