<svg viewBox="0 0 180 180" xmlns="http://www.w3.org/2000/svg" xmlns:xlink="http://www.w3.org/1999/xlink" width="180.000000" height="180.000000" fill="none">
	<rect id="AGTECH" width="180.000000" height="180.000000" x="0.000000" y="0.000000" fill="rgb(255,255,255)" fill-opacity="0" />
	<path id="Vector" d="M118.028 56.4162L104.453 56.4162L101.002 50.8727L94.3273 40.5212L78.4889 65.1273L71.1919 76.5535L65.2525 85.8303L57.9556 97.2L51.9596 106.477L44.6626 117.903L31.1434 117.903L38.4404 106.477L44.3798 97.2L51.6768 85.8303L57.6162 76.5535L87.5394 30L101.115 30L107.733 40.3515L114.521 50.8727L118.028 56.4162ZM157.511 117.903L57.2202 117.903L65.3091 106.477L71.2485 97.2L78.5455 85.8303L84.5414 76.5535L91.8384 65.1273L123.685 65.1273L130.982 76.5535L98.0606 76.5535L92.1212 85.8303L84.8242 97.2L78.8848 106.477L136.638 106.477L130.699 97.2L96.5899 97.2L104.17 85.8303L136.921 85.8303L144.275 97.2L150.214 106.477L157.511 117.903ZM39.8545 150.089L38.2141 147.147L29.2202 147.147L31.4263 143.018L36.0646 143.018L32.7838 136.853L25.7131 150.089L20 150.089L29.8424 132.271C30.3515 131.309 31.1434 130.857 32.1616 130.857L33.3495 130.857C34.3111 130.857 35.103 131.309 35.6121 132.271L45.4545 150.089L39.8545 150.089ZM54.901 150.089C53.4303 150.089 52.0727 149.863 50.8283 149.41C49.5838 148.958 48.5091 148.279 47.604 147.43C46.699 146.638 45.9636 145.62 45.4545 144.432C44.9455 143.244 44.7192 141.943 44.7192 140.473C44.7192 139.059 44.9455 137.701 45.4545 136.57C45.9636 135.382 46.699 134.364 47.604 133.515C48.5091 132.667 49.5838 131.988 50.8283 131.535C52.0727 131.083 53.4303 130.857 54.901 130.857L65.196 130.857L65.196 135.778L54.5616 135.778C53.8828 135.778 53.2606 135.891 52.695 136.117C52.0727 136.343 51.6202 136.683 51.1677 137.079C50.7717 137.531 50.4323 137.984 50.2061 138.606C49.9798 139.172 49.8667 139.794 49.8667 140.473C49.8667 141.152 49.9798 141.774 50.2061 142.396C50.4323 142.962 50.7717 143.414 51.1677 143.81C51.6202 144.263 52.0727 144.545 52.695 144.772C53.2606 144.998 53.8828 145.111 54.5616 145.111L60.2747 145.111L60.2747 142.509L54.0525 142.509L54.0525 138.38L65.196 138.38L65.196 150.089L54.901 150.089ZM82.5051 150.089L82.5051 135.778L75.3778 135.778L75.3778 130.857L94.7232 130.857L94.7232 135.778L87.6525 135.778L87.6525 150.089L82.5051 150.089ZM96.9859 150.089L96.9859 130.857L115.426 130.857L115.426 135.778L102.133 135.778L102.133 145.111L115.483 145.111L115.483 150.089L96.9859 150.089ZM128.097 150.089C126.57 150.089 125.212 149.863 123.968 149.41C122.723 148.958 121.648 148.279 120.8 147.43C119.895 146.638 119.16 145.62 118.651 144.432C118.141 143.244 117.859 141.943 117.859 140.473C117.859 139.059 118.141 137.701 118.651 136.57C119.16 135.382 119.895 134.364 120.8 133.515C121.648 132.667 122.723 131.988 123.968 131.535C125.212 131.083 126.57 130.857 128.097 130.857L137.487 130.857L137.487 135.778L127.701 135.778C127.022 135.778 126.4 135.891 125.834 136.117C125.269 136.343 124.76 136.683 124.364 137.079C123.968 137.531 123.628 137.984 123.402 138.606C123.176 139.172 123.063 139.794 123.063 140.473C123.063 141.152 123.176 141.774 123.402 142.396C123.628 142.962 123.968 143.414 124.364 143.81C124.76 144.263 125.269 144.545 125.834 144.772C126.4 144.998 127.022 145.111 127.701 145.111L137.487 145.111L137.487 150.089L128.097 150.089ZM140.372 150.089L140.372 130.857L145.576 130.857L145.576 150.089L140.372 150.089ZM154.853 150.089L154.853 142.622L147.329 142.622L147.329 137.927L154.853 137.927L154.853 130.857L160 130.857L160 150.089L154.853 150.089ZM103.887 142.509L103.887 138.38L115.257 138.38L115.257 142.509L103.887 142.509Z" fill="rgb(130.05,138.465,153)" fill-rule="evenodd" />
</svg>
